<svg width="18" height="18" viewBox="0 0 18 18" fill="none" xmlns="http://www.w3.org/2000/svg">
<path fill-rule="evenodd" clip-rule="evenodd" d="M3.16667 17.3333C1.78595 17.3333 0.666667 16.214 0.666667 14.8333V3.16667C0.666667 1.78595 1.78595 0.666667 3.16667 0.666667H14.8333C16.214 0.666667 17.3333 1.78595 17.3333 3.16667V14.8333C17.3333 16.214 16.214 17.3333 14.8333 17.3333H3.16667ZM2.33333 3.16667C2.33333 2.70643 2.70643 2.33333 3.16667 2.33333H5.66667V15.6667H3.16667C2.70643 15.6667 2.33333 15.2936 2.33333 14.8333V3.16667ZM7.33333 15.6667V2.33333H14.8333C15.2936 2.33333 15.6667 2.70643 15.6667 3.16667V14.8333C15.6667 15.2936 15.2936 15.6667 14.8333 15.6667H7.33333Z" fill="#2E3238"/>
</svg>
